<svg width="278" height="60" viewBox="0 0 278 60" fill="none" xmlns="http://www.w3.org/2000/svg">
<path d="M108.876 28.4032C110.789 33.4459 112.657 38.2877 114.423 43.166C114.829 44.286 115.929 45.8719 114.125 46.5631C112.407 47.2216 110.509 46.8746 109.662 44.8785C108.357 41.8038 107.214 38.6606 106.009 35.5435C102.846 27.355 99.6862 19.1649 96.4147 10.6897C95.2307 11.9791 94.8668 13.3339 94.374 14.5914C89.881 26.0566 85.359 37.5111 80.9857 49.022C80.0827 51.3987 78.652 51.9204 76.2734 52.2292C70.5207 52.976 66.7189 51.1553 63.9709 45.8442C61.4783 41.0268 57.9834 36.7362 55.0601 32.131C52.4534 28.0245 53.4533 25.985 58.2203 26.1127C65.9256 26.3192 70.2842 18.8401 68.058 12.2391C66.8893 8.77367 63.6328 6.21191 59.9569 6.1148C56.5265 6.02417 53.0849 6.23271 49.6612 6.05716C47.2071 5.93132 46.752 6.99091 46.7644 9.18034C46.8394 22.3835 46.8 35.5874 46.77 48.791C46.7671 50.0469 47.1186 51.5242 45.3235 52.0558C42.8334 52.7931 41.3276 51.7991 41.3201 49.1851C41.2762 33.9571 41.2961 18.7288 41.2398 3.50079C41.2318 1.32345 42.14 0.557329 44.2631 0.594509C49.1028 0.6793 53.9453 0.593541 58.7866 0.607069C66.4809 0.628561 72.6288 5.57055 73.7027 12.5684C75.0688 21.4701 71.0525 28.3479 63.0798 30.7526C62.4182 30.9522 61.7479 31.1234 60.8715 31.366C61.4425 33.0882 62.5815 34.3198 63.499 35.663C65.6829 38.8602 67.9 42.035 70.132 45.1988C70.6819 45.9784 71.2237 46.7696 72.2603 47.0677C75.1141 47.8885 75.9633 47.5417 77.067 44.6999C82.226 31.4165 87.3522 18.1202 92.4955 4.83065C92.8128 4.01079 93.2174 3.22331 93.5091 2.39526C93.9889 1.03343 94.9118 0.576709 96.3369 0.559651C97.8549 0.541464 98.5559 1.28836 99.0387 2.56317C102.279 11.1182 105.539 19.6656 108.876 28.4032Z" fill="black"/>
<path d="M236.481 4.59461C245.559 -1.30916 254.781 -1.46104 263.833 3.779C273.069 9.12631 277.548 17.4898 277.087 28.1876C276.543 40.7986 265.107 52.0703 252.538 52.6844C239.141 53.3388 227.644 44.047 225.559 30.8806C224.848 26.3903 225.057 23.5576 226.299 20.8575C229.608 21.3071 230.9 22.5988 230.645 25.7109C229.886 34.9543 236.881 45.8065 248.137 47.0887C259.489 48.3819 269.603 40.6647 271.438 29.545C272.798 21.2986 268.47 12.6199 260.786 8.18908C253.616 4.05443 244.437 4.86978 237.809 10.321C236.61 11.3071 235.736 12.0883 234.28 10.6383C232.17 8.53735 232.096 8.08136 234.419 6.12622C235.024 5.61723 235.687 5.17723 236.481 4.59461Z" fill="black"/>
<path d="M191.173 4.70706C199.181 16.4755 207.08 28.0873 215.103 39.882C215.816 38.6419 215.575 37.6642 215.576 36.7397C215.595 25.7361 215.624 14.7322 215.55 3.729C215.534 1.5164 216.175 0.534653 218.549 0.572139C220.789 0.607529 221.152 1.73556 221.141 3.58001C221.1 10.6221 221.132 17.6646 221.129 24.707C221.127 32.7176 221.143 40.7285 221.084 48.7388C221.076 49.9364 221.694 51.6143 219.818 52.0352C218.103 52.42 216.632 52.0941 215.492 50.3925C207.118 37.8887 198.68 25.4275 190.227 12.9767C188.746 10.7949 187.11 8.71751 185.524 6.60776C184.822 5.67354 184.205 4.71494 184.346 3.48475C184.458 2.50876 183.889 1.15876 185.299 0.782045C186.656 0.419148 188.119 0.287293 189.107 1.73247C189.752 2.6765 190.411 3.61143 191.173 4.70706Z" fill="black"/>
<path d="M153.94 23.4999C150.477 32.2824 147.091 40.8772 143.698 49.4694C143.346 50.3624 143.127 51.4135 142.147 51.8277C140.983 52.3196 139.657 52.467 138.579 51.7855C137.263 50.9536 138.043 49.7024 138.432 48.6942C144.387 33.2641 150.381 17.8489 156.341 2.42057C156.81 1.20647 157.502 0.624399 158.865 0.571161C160.458 0.50891 161.299 1.20457 161.838 2.59986C164.82 10.3126 167.85 18.0067 170.821 25.7234C173.729 33.2752 176.624 40.8329 179.427 48.4241C179.842 49.5489 181.273 51.0623 179.267 52.041C177.346 52.9791 175.199 52.015 174.387 49.9309C170.68 40.4221 167.029 30.892 163.345 21.3747C162.057 18.0489 160.731 14.738 159.215 10.8917C156.85 15.2367 155.697 19.3883 153.94 23.4999Z" fill="black"/>
<path d="M0.0391218 4.83262C-0.096618 0.628521 -0.0966265 0.619089 3.85722 0.616574C14.0622 0.610108 24.2675 0.648772 34.4721 0.581297C36.4984 0.567899 37.6631 1.1061 37.6857 3.32601C37.7042 5.15086 37.043 6.14652 35.0866 6.12639C31.4801 6.08924 27.8684 6.23128 24.2677 6.08231C22.0609 5.99098 21.3941 6.76992 21.4072 8.94924C21.4879 22.3209 21.4436 35.6932 21.4544 49.0653C21.4558 50.7304 21.5296 52.1905 19.0905 52.2211C16.7471 52.2505 16.3259 51.1616 16.3167 49.1535C16.2571 36.048 16.1163 22.9429 16.0064 9.83767C15.9756 6.1556 15.9823 6.14752 12.3876 6.12292C9.30862 6.10183 6.22891 6.13284 3.15071 6.07615C2.05462 6.05596 0.80458 6.31649 0.0391218 4.83262Z" fill="black"/>
<path d="M128.51 48.1504C129.048 46.7598 128.892 45.5136 128.893 44.2901C128.907 30.7388 128.918 17.1875 128.891 3.6363C128.888 1.84163 129.116 0.599782 131.407 0.567407C133.686 0.535257 134.519 1.32374 134.502 3.63224C134.416 15.071 134.452 26.5108 134.443 37.9501C134.441 40.238 134.49 42.5278 134.414 44.8133C134.104 54.1014 126.949 60.3083 117.725 59.3329C116.764 59.2312 115.803 59.1195 114.839 59.0428C113.464 58.9334 112.049 58.8115 112.157 56.9304C112.254 55.2425 112.676 53.8045 114.931 53.9646C116.681 54.0888 118.457 54.0709 120.207 53.9313C123.974 53.6309 126.955 52.0708 128.51 48.1504Z" fill="black"/>
<path d="M183.877 42.5027C183.886 33.4414 183.876 24.6439 183.934 15.8468C183.941 14.8263 183.382 13.1087 184.984 13.0511C186.568 12.9941 188.344 13.5418 188.929 15.4709C189.155 16.2186 189.261 17.032 189.261 17.8153C189.253 28.1078 189.241 38.4005 189.164 48.6926C189.151 50.4162 189.234 52.3632 186.464 52.1796C184.732 52.0648 183.854 51.417 183.879 49.6283C183.911 47.3415 183.881 45.0539 183.877 42.5027Z" fill="black"/>
</svg>
