<svg width="278" height="80" viewBox="0 0 278 80" fill="none" xmlns="http://www.w3.org/2000/svg">
<path d="M108.876 28.4032C110.789 33.4459 112.657 38.2877 114.423 43.166C114.829 44.286 115.929 45.8719 114.125 46.5631C112.407 47.2216 110.509 46.8746 109.662 44.8785C108.357 41.8038 107.214 38.6606 106.009 35.5435C102.846 27.355 99.6862 19.1649 96.4147 10.6897C95.2307 11.9791 94.8668 13.3339 94.374 14.5914C89.881 26.0566 85.359 37.5111 80.9857 49.022C80.0827 51.3987 78.652 51.9204 76.2734 52.2292C70.5207 52.976 66.7189 51.1553 63.9709 45.8442C61.4783 41.0268 57.9834 36.7362 55.0601 32.131C52.4534 28.0245 53.4533 25.985 58.2203 26.1127C65.9256 26.3192 70.2842 18.8401 68.058 12.2391C66.8893 8.77367 63.6328 6.21191 59.9569 6.1148C56.5265 6.02417 53.0849 6.23271 49.6612 6.05716C47.2071 5.93132 46.752 6.99091 46.7644 9.18034C46.8394 22.3835 46.8 35.5874 46.77 48.791C46.7671 50.0469 47.1186 51.5242 45.3235 52.0558C42.8334 52.7931 41.3276 51.7991 41.3201 49.1851C41.2762 33.9571 41.2961 18.7288 41.2398 3.50079C41.2318 1.32345 42.14 0.557329 44.2631 0.594509C49.1028 0.6793 53.9453 0.593541 58.7866 0.607069C66.4809 0.628561 72.6288 5.57055 73.7027 12.5684C75.0688 21.4701 71.0525 28.3479 63.0798 30.7526C62.4182 30.9522 61.7479 31.1234 60.8715 31.366C61.4425 33.0882 62.5815 34.3198 63.499 35.663C65.6829 38.8602 67.9 42.035 70.132 45.1988C70.6819 45.9784 71.2237 46.7696 72.2603 47.0677C75.1141 47.8885 75.9633 47.5417 77.067 44.6999C82.226 31.4165 87.3522 18.1202 92.4955 4.83065C92.8128 4.01079 93.2174 3.22331 93.5091 2.39526C93.9889 1.03343 94.9118 0.576709 96.3369 0.559651C97.8549 0.541464 98.5559 1.28836 99.0387 2.56317C102.279 11.1182 105.539 19.6656 108.876 28.4032Z" fill="white"/>
<path d="M236.481 4.59461C245.559 -1.30916 254.781 -1.46104 263.833 3.779C273.069 9.12631 277.548 17.4898 277.087 28.1876C276.543 40.7986 265.107 52.0703 252.538 52.6844C239.141 53.3388 227.644 44.047 225.559 30.8806C224.848 26.3903 225.057 23.5576 226.299 20.8575C229.608 21.3071 230.9 22.5988 230.645 25.7109C229.886 34.9543 236.881 45.8065 248.137 47.0887C259.489 48.3819 269.603 40.6647 271.438 29.545C272.798 21.2986 268.47 12.6199 260.786 8.18908C253.616 4.05443 244.437 4.86978 237.809 10.321C236.61 11.3071 235.736 12.0883 234.28 10.6383C232.17 8.53735 232.096 8.08136 234.419 6.12622C235.024 5.61723 235.687 5.17723 236.481 4.59461Z" fill="white"/>
<path d="M191.173 4.70706C199.181 16.4755 207.08 28.0873 215.103 39.882C215.816 38.6419 215.575 37.6642 215.576 36.7397C215.595 25.7361 215.624 14.7322 215.55 3.729C215.534 1.5164 216.175 0.534653 218.549 0.572139C220.789 0.607529 221.152 1.73556 221.141 3.58001C221.1 10.6221 221.132 17.6646 221.129 24.707C221.127 32.7176 221.143 40.7285 221.084 48.7388C221.076 49.9364 221.694 51.6143 219.818 52.0352C218.103 52.42 216.632 52.0941 215.492 50.3925C207.118 37.8887 198.68 25.4275 190.227 12.9767C188.746 10.7949 187.11 8.71751 185.524 6.60776C184.822 5.67354 184.205 4.71494 184.346 3.48475C184.458 2.50876 183.889 1.15876 185.299 0.782045C186.656 0.419148 188.119 0.287293 189.107 1.73247C189.752 2.6765 190.411 3.61143 191.173 4.70706Z" fill="white"/>
<path d="M153.94 23.4999C150.477 32.2824 147.091 40.8772 143.698 49.4694C143.346 50.3624 143.127 51.4135 142.147 51.8277C140.983 52.3196 139.657 52.467 138.579 51.7855C137.263 50.9536 138.043 49.7024 138.432 48.6942C144.387 33.2641 150.381 17.8489 156.341 2.42057C156.81 1.20647 157.502 0.624399 158.865 0.571161C160.458 0.50891 161.299 1.20457 161.838 2.59986C164.82 10.3126 167.85 18.0067 170.821 25.7234C173.729 33.2752 176.624 40.8329 179.427 48.4241C179.842 49.5489 181.273 51.0623 179.267 52.041C177.346 52.9791 175.199 52.015 174.387 49.9309C170.68 40.4221 167.029 30.892 163.345 21.3747C162.057 18.0489 160.731 14.738 159.215 10.8917C156.85 15.2367 155.697 19.3883 153.94 23.4999Z" fill="white"/>
<path d="M0.0391218 4.83262C-0.096618 0.628521 -0.0966265 0.619089 3.85722 0.616574C14.0622 0.610108 24.2675 0.648772 34.4721 0.581297C36.4984 0.567899 37.6631 1.1061 37.6857 3.32601C37.7042 5.15086 37.043 6.14652 35.0866 6.12639C31.4801 6.08924 27.8684 6.23128 24.2677 6.08231C22.0609 5.99098 21.3941 6.76992 21.4072 8.94924C21.4879 22.3209 21.4436 35.6932 21.4544 49.0653C21.4558 50.7304 21.5296 52.1905 19.0905 52.2211C16.7471 52.2505 16.3259 51.1616 16.3167 49.1535C16.2571 36.048 16.1163 22.9429 16.0064 9.83767C15.9756 6.1556 15.9823 6.14752 12.3876 6.12292C9.30862 6.10183 6.22891 6.13284 3.15071 6.07615C2.05462 6.05596 0.80458 6.31649 0.0391218 4.83262Z" fill="white"/>
<path d="M128.51 48.1504C129.048 46.7598 128.892 45.5136 128.893 44.2901C128.907 30.7388 128.918 17.1875 128.891 3.6363C128.888 1.84163 129.116 0.599782 131.407 0.567407C133.686 0.535257 134.519 1.32374 134.502 3.63224C134.416 15.071 134.452 26.5108 134.443 37.9501C134.441 40.238 134.49 42.5278 134.414 44.8133C134.104 54.1014 126.949 60.3083 117.725 59.3329C116.764 59.2312 115.803 59.1195 114.839 59.0428C113.464 58.9334 112.049 58.8115 112.157 56.9304C112.254 55.2425 112.676 53.8045 114.931 53.9646C116.681 54.0888 118.457 54.0709 120.207 53.9313C123.974 53.6309 126.955 52.0708 128.51 48.1504Z" fill="white"/>
<path d="M183.877 42.5026C183.886 33.4414 183.876 24.6438 183.934 15.8468C183.941 14.8263 183.382 13.1087 184.984 13.051C186.568 12.994 188.344 13.5418 188.929 15.4708C189.155 16.2186 189.261 17.0319 189.261 17.8153C189.253 28.1078 189.241 38.4005 189.164 48.6926C189.151 50.4162 189.234 52.3632 186.464 52.1796C184.732 52.0647 183.854 51.417 183.879 49.6283C183.911 47.3415 183.881 45.0538 183.877 42.5026Z" fill="white"/>
<path d="M18.219 76.102C17.335 76.102 16.485 75.9603 15.669 75.677C14.8643 75.3823 14.241 75.0083 13.799 74.555L14.292 73.586C14.7113 73.994 15.2723 74.3397 15.975 74.623C16.689 74.895 17.437 75.031 18.219 75.031C18.967 75.031 19.5733 74.9403 20.038 74.759C20.514 74.5663 20.8597 74.3113 21.075 73.994C21.3017 73.6767 21.415 73.3253 21.415 72.94C21.415 72.4753 21.279 72.1013 21.007 71.818C20.7463 71.5347 20.4007 71.3137 19.97 71.155C19.5393 70.985 19.0633 70.8377 18.542 70.713C18.0207 70.5883 17.4993 70.458 16.978 70.322C16.4567 70.1747 15.975 69.982 15.533 69.744C15.1023 69.506 14.751 69.1943 14.479 68.809C14.2183 68.4123 14.088 67.8967 14.088 67.262C14.088 66.6727 14.241 66.1343 14.547 65.647C14.8643 65.1483 15.346 64.7517 15.992 64.457C16.638 64.151 17.4653 63.998 18.474 63.998C19.1427 63.998 19.8057 64.0943 20.463 64.287C21.1203 64.4683 21.687 64.7233 22.163 65.052L21.738 66.055C21.228 65.715 20.684 65.4657 20.106 65.307C19.5393 65.1483 18.9897 65.069 18.457 65.069C17.743 65.069 17.1537 65.1653 16.689 65.358C16.2243 65.5507 15.8787 65.8113 15.652 66.14C15.4367 66.4573 15.329 66.82 15.329 67.228C15.329 67.6927 15.4593 68.0667 15.72 68.35C15.992 68.6333 16.3433 68.8543 16.774 69.013C17.216 69.1717 17.6977 69.3133 18.219 69.438C18.7403 69.5627 19.256 69.6987 19.766 69.846C20.2873 69.9933 20.7633 70.186 21.194 70.424C21.636 70.6507 21.9873 70.9567 22.248 71.342C22.52 71.7273 22.656 72.2317 22.656 72.855C22.656 73.433 22.4973 73.9713 22.18 74.47C21.8627 74.9573 21.3753 75.354 20.718 75.66C20.072 75.9547 19.239 76.102 18.219 76.102ZM30.599 76.102C29.7037 76.102 28.8707 75.9547 28.1 75.66C27.3407 75.354 26.6777 74.929 26.111 74.385C25.5557 73.8297 25.1193 73.1893 24.802 72.464C24.496 71.7273 24.343 70.9227 24.343 70.05C24.343 69.1773 24.496 68.3783 24.802 67.653C25.1193 66.9163 25.5557 66.276 26.111 65.732C26.6777 65.1767 27.3407 64.7517 28.1 64.457C28.8593 64.151 29.6923 63.998 30.599 63.998C31.4943 63.998 32.3217 64.151 33.081 64.457C33.8403 64.7517 34.4977 65.171 35.053 65.715C35.6197 66.259 36.056 66.8993 36.362 67.636C36.6793 68.3727 36.838 69.1773 36.838 70.05C36.838 70.9227 36.6793 71.7273 36.362 72.464C36.056 73.2007 35.6197 73.841 35.053 74.385C34.4977 74.929 33.8403 75.354 33.081 75.66C32.3217 75.9547 31.4943 76.102 30.599 76.102ZM30.599 74.98C31.313 74.98 31.9703 74.861 32.571 74.623C33.183 74.3737 33.71 74.028 34.152 73.586C34.6053 73.1327 34.9567 72.6113 35.206 72.022C35.4553 71.4213 35.58 70.764 35.58 70.05C35.58 69.336 35.4553 68.6843 35.206 68.095C34.9567 67.4943 34.6053 66.973 34.152 66.531C33.71 66.0777 33.183 65.732 32.571 65.494C31.9703 65.2447 31.313 65.12 30.599 65.12C29.885 65.12 29.222 65.2447 28.61 65.494C27.998 65.732 27.4653 66.0777 27.012 66.531C26.57 66.973 26.2187 67.4943 25.958 68.095C25.7087 68.6843 25.584 69.336 25.584 70.05C25.584 70.7527 25.7087 71.4043 25.958 72.005C26.2187 72.6057 26.57 73.1327 27.012 73.586C27.4653 74.028 27.998 74.3737 28.61 74.623C29.222 74.861 29.885 74.98 30.599 74.98ZM39.6577 76V64.1H40.9157V74.912H47.5797V76H39.6577ZM54.2466 76.102C52.728 76.102 51.5323 75.6657 50.6596 74.793C49.787 73.9203 49.3506 72.6283 49.3506 70.917V64.1H50.6086V70.866C50.6086 72.2713 50.926 73.3083 51.5606 73.977C52.1953 74.6457 53.0906 74.98 54.2466 74.98C55.414 74.98 56.315 74.6457 56.9496 73.977C57.5843 73.3083 57.9016 72.2713 57.9016 70.866V64.1H59.1256V70.917C59.1256 72.6283 58.6893 73.9203 57.8166 74.793C56.9553 75.6657 55.7653 76.102 54.2466 76.102ZM68.0845 76.102C67.1892 76.102 66.3618 75.9547 65.6025 75.66C64.8432 75.354 64.1858 74.929 63.6305 74.385C63.0752 73.841 62.6388 73.2007 62.3215 72.464C62.0155 71.7273 61.8625 70.9227 61.8625 70.05C61.8625 69.1773 62.0155 68.3727 62.3215 67.636C62.6388 66.8993 63.0752 66.259 63.6305 65.715C64.1972 65.171 64.8602 64.7517 65.6195 64.457C66.3788 64.151 67.2062 63.998 68.1015 63.998C68.9628 63.998 69.7732 64.1453 70.5325 64.44C71.2918 64.7233 71.9322 65.154 72.4535 65.732L71.6545 66.531C71.1672 66.0323 70.6288 65.6753 70.0395 65.46C69.4502 65.2333 68.8155 65.12 68.1355 65.12C67.4215 65.12 66.7585 65.2447 66.1465 65.494C65.5345 65.732 65.0018 66.0777 64.5485 66.531C64.0952 66.973 63.7382 67.4943 63.4775 68.095C63.2282 68.6843 63.1035 69.336 63.1035 70.05C63.1035 70.764 63.2282 71.4213 63.4775 72.022C63.7382 72.6113 64.0952 73.1327 64.5485 73.586C65.0018 74.028 65.5345 74.3737 66.1465 74.623C66.7585 74.861 67.4215 74.98 68.1355 74.98C68.8155 74.98 69.4502 74.8667 70.0395 74.64C70.6288 74.4133 71.1672 74.0507 71.6545 73.552L72.4535 74.351C71.9322 74.929 71.2918 75.3653 70.5325 75.66C69.7732 75.9547 68.9572 76.102 68.0845 76.102ZM67.4725 79.74C67.1892 79.74 66.9285 79.706 66.6905 79.638C66.4638 79.57 66.2485 79.4737 66.0445 79.349L66.3335 78.703C66.5035 78.805 66.6792 78.8843 66.8605 78.941C67.0532 78.9977 67.2515 79.026 67.4555 79.026C67.7955 79.026 68.0562 78.9523 68.2375 78.805C68.4188 78.669 68.5095 78.4763 68.5095 78.227C68.5095 78.0003 68.4188 77.8133 68.2375 77.666C68.0675 77.5187 67.8068 77.445 67.4555 77.445H67.0645L67.4725 75.898H68.2035L67.9485 76.884C68.4132 76.918 68.7702 77.0597 69.0195 77.309C69.2688 77.5697 69.3935 77.887 69.3935 78.261C69.3935 78.7143 69.2122 79.0713 68.8495 79.332C68.4982 79.604 68.0392 79.74 67.4725 79.74ZM80.0882 76.102C79.1929 76.102 78.3599 75.9547 77.5892 75.66C76.8299 75.354 76.1669 74.929 75.6002 74.385C75.0449 73.8297 74.6086 73.1893 74.2912 72.464C73.9852 71.7273 73.8322 70.9227 73.8322 70.05C73.8322 69.1773 73.9852 68.3783 74.2912 67.653C74.6086 66.9163 75.0449 66.276 75.6002 65.732C76.1669 65.1767 76.8299 64.7517 77.5892 64.457C78.3486 64.151 79.1816 63.998 80.0882 63.998C80.9836 63.998 81.8109 64.151 82.5702 64.457C83.3296 64.7517 83.9869 65.171 84.5422 65.715C85.1089 66.259 85.5452 66.8993 85.8512 67.636C86.1686 68.3727 86.3272 69.1773 86.3272 70.05C86.3272 70.9227 86.1686 71.7273 85.8512 72.464C85.5452 73.2007 85.1089 73.841 84.5422 74.385C83.9869 74.929 83.3296 75.354 82.5702 75.66C81.8109 75.9547 80.9836 76.102 80.0882 76.102ZM80.0882 74.98C80.8022 74.98 81.4596 74.861 82.0602 74.623C82.6722 74.3737 83.1992 74.028 83.6412 73.586C84.0946 73.1327 84.4459 72.6113 84.6952 72.022C84.9446 71.4213 85.0692 70.764 85.0692 70.05C85.0692 69.336 84.9446 68.6843 84.6952 68.095C84.4459 67.4943 84.0946 66.973 83.6412 66.531C83.1992 66.0777 82.6722 65.732 82.0602 65.494C81.4596 65.2447 80.8022 65.12 80.0882 65.12C79.3742 65.12 78.7112 65.2447 78.0992 65.494C77.4872 65.732 76.9546 66.0777 76.5012 66.531C76.0592 66.973 75.7079 67.4943 75.4472 68.095C75.1979 68.6843 75.0732 69.336 75.0732 70.05C75.0732 70.7527 75.1979 71.4043 75.4472 72.005C75.7079 72.6057 76.0592 73.1327 76.5012 73.586C76.9546 74.028 77.4872 74.3737 78.0992 74.623C78.7112 74.861 79.3742 74.98 80.0882 74.98ZM81.2442 63.029C80.9836 63.029 80.7512 62.9723 80.5472 62.859C80.3432 62.7457 80.1562 62.6153 79.9862 62.468C79.8276 62.3093 79.6689 62.1733 79.5102 62.06C79.3516 61.9353 79.1872 61.873 79.0172 61.873C78.7566 61.873 78.5469 61.9693 78.3882 62.162C78.2409 62.3547 78.1559 62.621 78.1332 62.961H77.4022C77.4249 62.3943 77.5722 61.941 77.8442 61.601C78.1276 61.261 78.4902 61.091 78.9322 61.091C79.1929 61.091 79.4252 61.1533 79.6292 61.278C79.8446 61.3913 80.0316 61.5273 80.1902 61.686C80.3602 61.8333 80.5189 61.9637 80.6662 62.077C80.8249 62.1903 80.9892 62.247 81.1592 62.247C81.4199 62.247 81.6296 62.1563 81.7882 61.975C81.9469 61.7823 82.0319 61.5217 82.0432 61.193H82.7742C82.7629 61.737 82.6156 62.179 82.3322 62.519C82.0489 62.859 81.6862 63.029 81.2442 63.029ZM90.269 69.421H96.559V70.492H90.269V69.421ZM90.405 74.912H97.562V76H89.147V64.1H97.307V65.188H90.405V74.912ZM103.8 76.102C102.916 76.102 102.066 75.9603 101.25 75.677C100.445 75.3823 99.8221 75.0083 99.3801 74.555L99.8731 73.586C100.292 73.994 100.853 74.3397 101.556 74.623C102.27 74.895 103.018 75.031 103.8 75.031C104.548 75.031 105.154 74.9403 105.619 74.759C106.095 74.5663 106.441 74.3113 106.656 73.994C106.883 73.6767 106.996 73.3253 106.996 72.94C106.996 72.4753 106.86 72.1013 106.588 71.818C106.327 71.5347 105.982 71.3137 105.551 71.155C105.12 70.985 104.644 70.8377 104.123 70.713C103.602 70.5883 103.08 70.458 102.559 70.322C102.038 70.1747 101.556 69.982 101.114 69.744C100.683 69.506 100.332 69.1943 100.06 68.809C99.7994 68.4123 99.6691 67.8967 99.6691 67.262C99.6691 66.6727 99.8221 66.1343 100.128 65.647C100.445 65.1483 100.927 64.7517 101.573 64.457C102.219 64.151 103.046 63.998 104.055 63.998C104.724 63.998 105.387 64.0943 106.044 64.287C106.701 64.4683 107.268 64.7233 107.744 65.052L107.319 66.055C106.809 65.715 106.265 65.4657 105.687 65.307C105.12 65.1483 104.571 65.069 104.038 65.069C103.324 65.069 102.735 65.1653 102.27 65.358C101.805 65.5507 101.46 65.8113 101.233 66.14C101.018 66.4573 100.91 66.82 100.91 67.228C100.91 67.6927 101.04 68.0667 101.301 68.35C101.573 68.6333 101.924 68.8543 102.355 69.013C102.797 69.1717 103.279 69.3133 103.8 69.438C104.321 69.5627 104.837 69.6987 105.347 69.846C105.868 69.9933 106.344 70.186 106.775 70.424C107.217 70.6507 107.568 70.9567 107.829 71.342C108.101 71.7273 108.237 72.2317 108.237 72.855C108.237 73.433 108.078 73.9713 107.761 74.47C107.444 74.9573 106.956 75.354 106.299 75.66C105.653 75.9547 104.82 76.102 103.8 76.102ZM116.549 69.421H122.839V70.492H116.549V69.421ZM116.685 74.912H123.842V76H115.427V64.1H123.587V65.188H116.685V74.912ZM126.799 76V64.1H127.836L133.276 73.382H132.732L138.121 64.1H139.158V76H137.951V65.987H138.24L133.276 74.487H132.681L127.683 65.987H128.006V76H126.799ZM149.797 76V65.188H145.615V64.1H155.237V65.188H151.055V76H149.797ZM158.369 69.421H164.659V70.492H158.369V69.421ZM158.505 74.912H165.662V76H157.247V64.1H165.407V65.188H158.505V74.912ZM173.753 76.102C172.858 76.102 172.031 75.9547 171.271 75.66C170.512 75.354 169.855 74.929 169.299 74.385C168.744 73.841 168.308 73.2007 167.99 72.464C167.684 71.7273 167.531 70.9227 167.531 70.05C167.531 69.1773 167.684 68.3727 167.99 67.636C168.308 66.8993 168.744 66.259 169.299 65.715C169.866 65.171 170.529 64.7517 171.288 64.457C172.048 64.151 172.875 63.998 173.77 63.998C174.632 63.998 175.442 64.1453 176.201 64.44C176.961 64.7233 177.601 65.154 178.122 65.732L177.323 66.531C176.836 66.0323 176.298 65.6753 175.708 65.46C175.119 65.2333 174.484 65.12 173.804 65.12C173.09 65.12 172.427 65.2447 171.815 65.494C171.203 65.732 170.671 66.0777 170.217 66.531C169.764 66.973 169.407 67.4943 169.146 68.095C168.897 68.6843 168.772 69.336 168.772 70.05C168.772 70.764 168.897 71.4213 169.146 72.022C169.407 72.6113 169.764 73.1327 170.217 73.586C170.671 74.028 171.203 74.3737 171.815 74.623C172.427 74.861 173.09 74.98 173.804 74.98C174.484 74.98 175.119 74.8667 175.708 74.64C176.298 74.4133 176.836 74.0507 177.323 73.552L178.122 74.351C177.601 74.929 176.961 75.3653 176.201 75.66C175.442 75.9547 174.626 76.102 173.753 76.102ZM180.804 76V64.1H181.841L190.052 74.436H189.508V64.1H190.749V76H189.712L181.518 65.664H182.062V76H180.804ZM199.835 76.102C198.94 76.102 198.107 75.9547 197.336 75.66C196.577 75.354 195.914 74.929 195.347 74.385C194.792 73.8297 194.356 73.1893 194.038 72.464C193.732 71.7273 193.579 70.9227 193.579 70.05C193.579 69.1773 193.732 68.3783 194.038 67.653C194.356 66.9163 194.792 66.276 195.347 65.732C195.914 65.1767 196.577 64.7517 197.336 64.457C198.096 64.151 198.929 63.998 199.835 63.998C200.731 63.998 201.558 64.151 202.317 64.457C203.077 64.7517 203.734 65.171 204.289 65.715C204.856 66.259 205.292 66.8993 205.598 67.636C205.916 68.3727 206.074 69.1773 206.074 70.05C206.074 70.9227 205.916 71.7273 205.598 72.464C205.292 73.2007 204.856 73.841 204.289 74.385C203.734 74.929 203.077 75.354 202.317 75.66C201.558 75.9547 200.731 76.102 199.835 76.102ZM199.835 74.98C200.549 74.98 201.207 74.861 201.807 74.623C202.419 74.3737 202.946 74.028 203.388 73.586C203.842 73.1327 204.193 72.6113 204.442 72.022C204.692 71.4213 204.816 70.764 204.816 70.05C204.816 69.336 204.692 68.6843 204.442 68.095C204.193 67.4943 203.842 66.973 203.388 66.531C202.946 66.0777 202.419 65.732 201.807 65.494C201.207 65.2447 200.549 65.12 199.835 65.12C199.121 65.12 198.458 65.2447 197.846 65.494C197.234 65.732 196.702 66.0777 196.248 66.531C195.806 66.973 195.455 67.4943 195.194 68.095C194.945 68.6843 194.82 69.336 194.82 70.05C194.82 70.7527 194.945 71.4043 195.194 72.005C195.455 72.6057 195.806 73.1327 196.248 73.586C196.702 74.028 197.234 74.3737 197.846 74.623C198.458 74.861 199.121 74.98 199.835 74.98ZM208.894 76V64.1H210.152V74.912H216.816V76H208.894ZM223.874 76.102C222.979 76.102 222.146 75.9547 221.375 75.66C220.616 75.354 219.953 74.929 219.386 74.385C218.831 73.8297 218.395 73.1893 218.077 72.464C217.771 71.7273 217.618 70.9227 217.618 70.05C217.618 69.1773 217.771 68.3783 218.077 67.653C218.395 66.9163 218.831 66.276 219.386 65.732C219.953 65.1767 220.616 64.7517 221.375 64.457C222.135 64.151 222.968 63.998 223.874 63.998C224.77 63.998 225.597 64.151 226.356 64.457C227.116 64.7517 227.773 65.171 228.328 65.715C228.895 66.259 229.331 66.8993 229.637 67.636C229.955 68.3727 230.113 69.1773 230.113 70.05C230.113 70.9227 229.955 71.7273 229.637 72.464C229.331 73.2007 228.895 73.841 228.328 74.385C227.773 74.929 227.116 75.354 226.356 75.66C225.597 75.9547 224.77 76.102 223.874 76.102ZM223.874 74.98C224.588 74.98 225.246 74.861 225.846 74.623C226.458 74.3737 226.985 74.028 227.427 73.586C227.881 73.1327 228.232 72.6113 228.481 72.022C228.731 71.4213 228.855 70.764 228.855 70.05C228.855 69.336 228.731 68.6843 228.481 68.095C228.232 67.4943 227.881 66.973 227.427 66.531C226.985 66.0777 226.458 65.732 225.846 65.494C225.246 65.2447 224.588 65.12 223.874 65.12C223.16 65.12 222.497 65.2447 221.885 65.494C221.273 65.732 220.741 66.0777 220.287 66.531C219.845 66.973 219.494 67.4943 219.233 68.095C218.984 68.6843 218.859 69.336 218.859 70.05C218.859 70.7527 218.984 71.4043 219.233 72.005C219.494 72.6057 219.845 73.1327 220.287 73.586C220.741 74.028 221.273 74.3737 221.885 74.623C222.497 74.861 223.16 74.98 223.874 74.98ZM238.152 76.102C237.245 76.102 236.407 75.9547 235.636 75.66C234.877 75.354 234.214 74.929 233.647 74.385C233.092 73.841 232.655 73.2007 232.338 72.464C232.032 71.7273 231.879 70.9227 231.879 70.05C231.879 69.1773 232.032 68.3727 232.338 67.636C232.655 66.8993 233.097 66.259 233.664 65.715C234.231 65.171 234.894 64.7517 235.653 64.457C236.424 64.151 237.262 63.998 238.169 63.998C239.076 63.998 239.903 64.1397 240.651 64.423C241.41 64.7063 242.056 65.137 242.589 65.715L241.807 66.514C241.308 66.0153 240.759 65.6583 240.158 65.443C239.557 65.2277 238.911 65.12 238.22 65.12C237.483 65.12 236.803 65.2447 236.18 65.494C235.568 65.732 235.03 66.0777 234.565 66.531C234.112 66.973 233.755 67.4943 233.494 68.095C233.245 68.6843 233.12 69.336 233.12 70.05C233.12 70.7527 233.245 71.4043 233.494 72.005C233.755 72.6057 234.112 73.1327 234.565 73.586C235.03 74.028 235.568 74.3737 236.18 74.623C236.803 74.861 237.478 74.98 238.203 74.98C238.883 74.98 239.523 74.878 240.124 74.674C240.736 74.47 241.297 74.1243 241.807 73.637L242.521 74.589C241.954 75.0877 241.291 75.4673 240.532 75.728C239.773 75.9773 238.979 76.102 238.152 76.102ZM241.314 74.436V70.05H242.521V74.589L241.314 74.436ZM246.082 76V64.1H247.34V76H246.082ZM249.307 76L254.747 64.1H255.988L261.428 76H260.102L255.104 64.831H255.614L250.616 76H249.307ZM251.449 72.821L251.823 71.801H258.742L259.116 72.821H251.449Z" fill="white"/>
</svg>
